<?xml version="1.0" encoding="UTF-8"?>
<svg width="25px" height="24px" viewBox="0 0 25 24" version="1.1" xmlns="http://www.w3.org/2000/svg" xmlns:xlink="http://www.w3.org/1999/xlink">
    <!-- Generator: Sketch 63.1 (92452) - https://sketch.com -->
    <title>Shape</title>
    <desc>Created with Sketch.</desc>
    <g id="Hive" stroke="none" stroke-width="1" fill="none" fill-rule="evenodd">
        <g id="Budicon-Outline/Furniture/bathup" transform="translate(0.000000, -1.000000)" fill="#000000" fill-rule="nonzero">
            <path d="M24.5,12.9999895 L2,12.9999895 L2,3.00368948 C1.99984503,2.64714957 2.18953369,2.31749594 2.49786578,2.13846507 C2.80619788,1.95943419 3.18652872,1.95810998 3.4961,2.13498948 L4.3991,2.65108948 C3.73345574,3.81991988 3.9298539,5.28930543 4.8791,6.24228948 L6.3941,7.75728948 L10.7577,3.39368948 L9.2423,1.87868948 C8.08081496,0.715458167 6.19877723,0.705951348 5.0256,1.85738948 L3.9922,1.26678948 C3.37313498,0.913074854 2.61257956,0.915675409 1.99594789,1.27361524 C1.37931621,1.63155507 0.999868369,2.29069893 1,3.00368948 L1,12.9999895 L0.5,12.9999895 C0.223857625,12.9999895 0,13.2238471 0,13.4999895 C0,13.7761319 0.223857625,13.9999895 0.5,13.9999895 L1,13.9999895 L1,17.9999895 C1.001,19.9866593 2.17884329,21.7840089 4,22.5778895 L4,24.4999895 C4,24.7761319 4.22385763,24.9999895 4.5,24.9999895 C4.77614237,24.9999895 5,24.7761319 5,24.4999895 L5,22.8991895 C5.32911863,22.9661797 5.66413282,22.9999491 6,22.9999895 L19,22.9999895 C19.3358672,22.9999491 19.6708814,22.9661797 20,22.8991895 L20,24.4999895 C20,24.7761319 20.2238576,24.9999895 20.5,24.9999895 C20.7761424,24.9999895 21,24.7761319 21,24.4999895 L21,22.5778895 C22.8211567,21.7840089 23.999,19.9866593 24,17.9999895 L24,13.9999895 L24.5,13.9999895 C24.7761424,13.9999895 25,13.7761319 25,13.4999895 C25,13.2238471 24.7761424,12.9999895 24.5,12.9999895 L24.5,12.9999895 Z M5.5858,2.70678948 L5.7068,2.58578948 C6.48784548,1.80475898 7.75415452,1.80475898 8.5352,2.58578948 L9.3431,3.39368948 L6.3937,6.34308948 L5.5857,5.53508948 C4.8046695,4.754044 4.8046695,3.48773497 5.5857,2.70668948 L5.5858,2.70678948 Z M23,17.9999895 C22.9975201,20.2081004 21.208111,21.9975095 19,21.9999895 L6,21.9999895 C3.79191186,21.9974546 2.00253493,20.2080776 2,17.9999895 L2,16.9999895 L21.5,16.9999895 C21.7761424,16.9999895 22,16.7761319 22,16.4999895 C22,16.2238471 21.7761424,15.9999895 21.5,15.9999895 L2,15.9999895 L2,13.9999895 L23,13.9999895 L23,17.9999895 Z" id="Shape"></path>
        </g>
    </g>
</svg>