<?xml version="1.0" encoding="UTF-8"?>
<svg width="23px" height="16px" viewBox="0 0 23 16" version="1.1" xmlns="http://www.w3.org/2000/svg" xmlns:xlink="http://www.w3.org/1999/xlink">
    <!-- Generator: Sketch 63.1 (92452) - https://sketch.com -->
    <title>Shape</title>
    <desc>Created with Sketch.</desc>
    <g id="Hive" stroke="none" stroke-width="1" fill="none" fill-rule="evenodd">
        <g id="Budicon-Outline/Furniture/bed" transform="translate(-1.000000, -5.000000)" fill="#000000" fill-rule="nonzero">
            <path d="M22,13.1837 L22,5.5 C22,5.22385763 21.7761424,5 21.5,5 C21.2238576,5 21,5.22385763 21,5.5 L21,7 L4,7 L4,5.5 C4,5.22385763 3.77614237,5 3.5,5 C3.22385763,5 3,5.22385763 3,5.5 L3,13.1837 C1.80388662,13.603791 1.00250046,14.7322629 1,16 L1,20.5 C1,20.7761424 1.22385763,21 1.5,21 C1.77614237,21 2,20.7761424 2,20.5 L2,20 L23,20 L23,20.5 C23,20.7761424 23.2238576,21 23.5,21 C23.7761424,21 24,20.7761424 24,20.5 L24,16 C23.9974995,14.7322629 23.1961134,13.603791 22,13.1837 Z M4,8 L21,8 L21,13 L20,13 C20,11.8954305 19.1045695,11 18,11 L15,11 C13.8954305,11 13,11.8954305 13,13 L12,13 C12,11.8954305 11.1045695,11 10,11 L7,11 C5.8954305,11 5,11.8954305 5,13 L4,13 L4,8 Z M19,13 L14,13 C14.0006062,12.4479666 14.4479666,12.0006062 15,12 L18,12 C18.5520334,12.0006062 18.9993938,12.4479666 19,13 Z M11,13 L6,13 C6.00060624,12.4479666 6.44796656,12.0006062 7,12 L10,12 C10.5520334,12.0006062 10.9993938,12.4479666 11,13 L11,13 Z M23,19 L2,19 L2,16 C2.00126747,14.8959559 2.89595593,14.0012675 4,14 L21,14 C22.1040441,14.0012675 22.9987325,14.8959559 23,16 L23,19 Z" id="Shape"></path>
        </g>
    </g>
</svg>