<?xml version="1.0" encoding="UTF-8"?>
<svg width="50px" height="31px" viewBox="0 0 50 31" version="1.1" xmlns="http://www.w3.org/2000/svg" xmlns:xlink="http://www.w3.org/1999/xlink">
    <!-- Generator: Sketch 63.1 (92452) - https://sketch.com -->
    <title>noun_Bike_1975201</title>
    <desc>Created with Sketch.</desc>
    <g id="Symbols" stroke="none" stroke-width="1" fill="none" fill-rule="evenodd">
        <g id="Artboard" transform="translate(-55.000000, -34.000000)" fill="#000000" fill-rule="nonzero">
            <g id="noun_Bike_1975201" transform="translate(55.000000, 34.000000)">
                <g id="Group">
                    <path d="M10.324855,30.874345 C4.631565,30.874345 0,26.242285 0,20.549 C0,14.855715 4.631565,10.223655 10.324855,10.223655 C16.018145,10.223655 20.6502,14.855715 20.6502,20.549 C20.6502,26.242285 16.01814,30.874345 10.324855,30.874345 Z M10.324855,11.935375 C5.575375,11.935375 1.71172,15.79952 1.71172,20.549 C1.71172,25.298975 5.57537,29.162625 10.324855,29.162625 C15.07434,29.162625 18.93848,25.298975 18.93848,20.549 C18.93848,15.799515 15.074335,11.935375 10.324855,11.935375 Z" id="Shape"></path>
                    <path d="M39.674655,30.874345 C33.98137,30.874345 29.34931,26.242285 29.34931,20.549 C29.34931,14.855715 33.98137,10.223655 39.674655,10.223655 C45.36794,10.223655 50,14.855715 50,20.549 C50,26.242285 45.367945,30.874345 39.674655,30.874345 Z M39.674655,11.935375 C34.92468,11.935375 31.06103,15.79952 31.06103,20.549 C31.06103,25.298975 34.924685,29.162625 39.674655,29.162625 C44.424625,29.162625 48.28828,25.298975 48.28828,20.549 C48.28828,15.799515 44.42463,11.935375 39.674655,11.935375 Z" id="Shape"></path>
                    <path d="M35.681295,8.25596 L18.625025,8.25596 C18.152385,8.25596 17.769165,7.87274 17.769165,7.4001 C17.769165,6.92746 18.152385,6.54424 18.625025,6.54424 L35.6813,6.54424 C36.15394,6.54424 36.53716,6.92746 36.53716,7.4001 C36.53716,7.87274 36.15394,8.25596 35.681295,8.25596 Z" id="Shape"></path>
                    <path d="M10.32387,21.40486 C10.168125,21.40486 10.009925,21.361625 9.867935,21.27221 C9.4685,21.02066 9.349115,20.49201 9.601155,20.092085 L17.901325,6.94319 C18.153365,6.544245 18.681525,6.423385 19.08194,6.67641 C19.481375,6.928945 19.600765,7.4571 19.34872,7.857025 L11.04855,21.005915 C10.88593,21.26336 10.607845,21.40486 10.32387,21.40486 Z" id="Shape"></path>
                    <path d="M25.81238,20.03509 C25.618315,20.03509 25.423755,19.969255 25.26359,19.83562 C24.901005,19.53199 24.853345,18.99155 25.156975,18.629945 L35.02491,6.85082 C35.3305,6.48676 35.86996,6.442545 36.23058,6.744205 C36.593165,7.047835 36.64033,7.58729 36.337685,7.949385 L26.46926,19.728515 C26.299265,19.930935 26.05656,20.03509 25.81238,20.03509 Z" id="Shape"></path>
                    <path d="M23.95916,19.778625 C23.627035,19.778625 23.311615,19.58407 23.172575,19.259805 L15.4718,1.320155 C15.285105,0.885835 15.48605,0.38274 15.920365,0.19653 C16.35419,0.007375 16.85778,0.210285 17.043985,0.645095 L24.74476,18.585725 C24.93146,19.01906 24.73051,19.52216 24.296195,19.708855 C24.18615,19.756025 24.07167,19.778625 23.95916,19.778625 Z" id="Shape"></path>
                    <path d="M22.874845,21.40486 L10.324855,21.40486 C9.852215,21.40486 9.468995,21.02164 9.468995,20.549 C9.468995,20.07636 9.852215,19.69314 10.324855,19.69314 L22.874845,19.69314 C23.347485,19.69314 23.730705,20.07636 23.730705,20.549 C23.730705,21.02164 23.347485,21.40486 22.874845,21.40486 Z" id="Shape"></path>
                    <path d="M21.07813,1.83849 L13.83329,1.83849 C13.36065,1.83849 12.97743,1.45527 12.97743,0.98263 C12.97743,0.50999 13.36065,0.12677 13.83329,0.12677 L21.07813,0.12677 C21.550765,0.12677 21.93399,0.50999 21.93399,0.98263 C21.93399,1.45527 21.550765,1.83849 21.07813,1.83849 Z" id="Shape"></path>
                    <path d="M39.674655,21.40486 C39.307155,21.40486 38.968155,21.167065 38.856135,20.797605 L34.862775,7.64871 C34.83821,7.568135 34.825435,7.48412 34.825435,7.40011 L34.825435,2.18044 C34.825435,1.7078 35.208655,1.32458 35.681295,1.32458 C36.153935,1.32458 36.537155,1.7078 36.537155,2.18044 L36.537155,7.272855 L40.49317,20.300395 C40.630735,20.7524 40.37526,21.22995 39.92325,21.36752 C39.840715,21.393065 39.756215,21.40486 39.674655,21.40486 Z" id="Shape"></path>
                    <path d="M40.872465,8.170475 C40.399825,8.170475 40.016605,7.787255 40.016605,7.314615 C40.016605,6.841975 40.399825,6.458755 40.872465,6.458755 C41.784335,6.458755 42.554705,5.67512 42.554705,4.747525 C42.554705,3.80372 41.800055,3.036295 40.872465,3.036295 L35.681295,3.036295 C35.20866,3.036295 34.825435,2.653075 34.825435,2.180435 C34.825435,1.707795 35.208655,1.324575 35.681295,1.324575 L40.872465,1.324575 C42.74337,1.324575 44.266425,2.860405 44.266425,4.747525 C44.266425,6.634645 42.74337,8.170475 40.872465,8.170475 Z" id="Shape"></path>
                    <path d="M24.67156,23.201085 C23.208935,23.201085 22.018985,22.011135 22.018985,20.549 C22.018985,19.08588 23.208935,17.895935 24.67156,17.895935 C26.10962,17.895935 27.324135,19.111435 27.324135,20.549 C27.324135,22.011135 26.134185,23.201085 24.67156,23.201085 Z M24.67156,19.60765 C24.16158,19.60765 23.730705,20.03902 23.730705,20.548995 C23.730705,21.07666 24.143895,21.48936 24.67156,21.48936 C25.18154,21.48936 25.612415,21.058975 25.612415,20.548995 C25.612415,20.047865 25.172695,19.60765 24.67156,19.60765 Z" id="Shape"></path>
                </g>
            </g>
        </g>
    </g>
</svg>