<?xml version="1.0" encoding="UTF-8"?>
<svg width="25px" height="22px" viewBox="0 0 25 22" version="1.1" xmlns="http://www.w3.org/2000/svg" xmlns:xlink="http://www.w3.org/1999/xlink">
    <!-- Generator: Sketch 63.1 (92452) - https://sketch.com -->
    <title>Shape</title>
    <desc>Created with Sketch.</desc>
    <g id="Hive" stroke="none" stroke-width="1" fill="none" fill-rule="evenodd">
        <g id="Budicon-Outline/Furniture/fireplace" transform="translate(0.000000, -2.000000)" fill="#000000" fill-rule="nonzero">
            <path d="M23.9994447,2 L0.999444723,2 C0.699935344,2 0.416271002,2.13457721 0.226460584,2.36626213 C0.0366501668,2.59794705 -0.0393190739,2.90251188 0.0194447231,3.1962 L0.999444723,7 L0.999444723,22.5 C0.999444723,23.3284271 1.6710176,24 2.49944472,24 L22.4994447,24 C23.3278718,24 23.9994447,23.3284271 23.9994447,22.5 L23.9994447,7 L24.9794447,3.1962 C25.0382085,2.90251188 24.9622393,2.59794705 24.7724289,2.36626213 C24.5826184,2.13457721 24.2989541,2 23.9994447,2 Z M3.99944472,23 L2.49944472,23 C2.22330235,23 1.99944472,22.7761424 1.99944472,22.5 L1.99944472,19 L3.99944472,19 L3.99944472,23 Z M3.99944472,18 L1.99944472,18 L1.99944472,15 L3.99944472,15 L3.99944472,18 Z M3.99944472,14 L1.99944472,14 L1.99944472,11 L3.99944472,11 L3.99944472,14 Z M3.99944472,10 L1.99944472,10 L1.99944472,7 L3.99944472,7 L3.99944472,10 Z M19.9994447,23 L4.99944472,23 L4.99944472,7 L19.9994447,7 L19.9994447,23 Z M22.9994447,22.5 C22.9994447,22.7761424 22.7755871,23 22.4994447,23 L20.9994447,23 L20.9994447,19 L22.9994447,19 L22.9994447,22.5 Z M22.9994447,18 L20.9994447,18 L20.9994447,15 L22.9994447,15 L22.9994447,18 Z M22.9994447,14 L20.9994447,14 L20.9994447,11 L22.9994447,11 L22.9994447,14 Z M22.9994447,10 L20.9994447,10 L20.9994447,7 L22.9994447,7 L22.9994447,10 Z M23.2244447,6 L1.77444472,6 L1.00134472,3 L23.9976447,3 L23.2244447,6 Z M12.6837447,22 C14.3416447,22 15.9994447,20.56 15.9994447,19.12 C15.9994447,16.375 12.9599447,15.43 14.1573447,13 C11.3916211,13.0892214 9.15258389,15.2770783 8.99944472,18.04 C8.95349708,20.1395471 10.5863426,21.8945801 12.6837447,22 Z M12.8774447,14.24 C12.9983627,15.1804014 13.3889135,16.0656961 14.0019447,16.789 C14.5801996,17.4361425 14.9305616,18.2548831 14.9994447,19.12 C14.7528203,20.2053107 13.7965726,20.98164 12.6837447,21 C11.1362535,20.9005309 9.94762345,19.5898186 9.99944472,18.04 C10.0939793,16.304911 11.2328826,14.8011471 12.8774447,14.24 Z" id="Shape"></path>
        </g>
    </g>
</svg>