<?xml version="1.0" encoding="UTF-8"?>
<svg width="25px" height="21px" viewBox="0 0 25 21" version="1.1" xmlns="http://www.w3.org/2000/svg" xmlns:xlink="http://www.w3.org/1999/xlink">
    <!-- Generator: Sketch 63.1 (92452) - https://sketch.com -->
    <title>Budicon-Outline/Kitchen/hot-pot</title>
    <desc>Created with Sketch.</desc>
    <g id="Budicon" stroke="none" stroke-width="1" fill="none" fill-rule="evenodd">
        <g id="Budicon-2.1.1-(Outline)" transform="translate(-1452.000000, -615.000000)" fill="#000000" fill-rule="nonzero">
            <g id="Icons" transform="translate(465.000000, 177.000000)">
                <g id="Kitchen" transform="translate(770.000000, 363.000000)">
                    <g id="Budicon-Outline/Kitchen/hot-pot" transform="translate(217.000000, 73.000000)">
                        <path d="M24.5,11.0005618 L0.5,11.0005618 C0.223857625,11.0005618 0,11.2244194 0,11.5005618 C0,11.7767042 0.223857625,12.0005618 0.5,12.0005618 L2.0908,12.0005618 L3,22.0005618 C3,22.5528466 3.44771525,23.0005618 4,23.0005618 L21,23.0005618 C21.5522847,23.0005618 22,22.5528466 22,22.0005618 L22.9092,12.0005618 L24.5,12.0005618 C24.7761424,12.0005618 25,11.7767042 25,11.5005618 C25,11.2244194 24.7761424,11.0005618 24.5,11.0005618 Z M21.2687,19.0005618 L8.5,19.0005618 C8.22385763,19.0005618 8,19.2244194 8,19.5005618 C8,19.7767042 8.22385763,20.0005618 8.5,20.0005618 L21.1777,20.0005618 L21.0041,21.9100618 L21,21.9552618 L21,22.0005618 L4,22.0005618 L4,21.9552618 L3.9958,21.9100618 L3.095,12.0005618 L21.905,12.0005618 L21.2687,19.0005618 Z M1.63,8.9833618 L20.6293,2.9839618 C20.8030901,2.93883394 20.9393389,2.80398534 20.9862596,2.6306707 C21.0331802,2.45735605 20.9835675,2.27219001 20.8562786,2.14555247 C20.7289898,2.01891493 20.5435717,1.97025269 20.3705,2.0180618 L13.9785,4.0364618 L13.8303,3.4834618 C13.693011,2.97110311 13.3578112,2.53426722 12.8984407,2.26905321 C12.4390703,2.0038392 11.8931585,1.93197207 11.3808,2.0692618 L8.4831,2.8457618 C7.41617758,3.13160834 6.78297948,4.22823241 7.0688,5.2951618 L7.2969,6.1462618 L1.371,8.0174618 C1.19800271,8.06330861 1.06270259,8.19812296 1.01623385,8.37095423 C0.969765109,8.5437855 1.01921523,8.72827322 1.14589544,8.85469362 C1.27257565,8.98111401 1.45716449,9.03018527 1.6299,8.9833618 L1.63,8.9833618 Z M8.7419,3.8115618 L11.64,3.0350618 C12.1734207,2.89273028 12.7213895,3.2090571 12.8649,3.7421618 L13.0249,4.3377618 L8.2515,5.8447618 L8.0349,5.0362618 C7.89257119,4.50292067 8.20886284,3.95502481 8.7419,3.8115618 Z" id="Shape"></path>
                    </g>
                </g>
            </g>
        </g>
    </g>
</svg>