<?xml version="1.0" encoding="UTF-8"?>
<svg width="25px" height="23px" viewBox="0 0 25 23" version="1.1" xmlns="http://www.w3.org/2000/svg" xmlns:xlink="http://www.w3.org/1999/xlink">
    <!-- Generator: Sketch 63.1 (92452) - https://sketch.com -->
    <title>Shape</title>
    <desc>Created with Sketch.</desc>
    <g id="Hive" stroke="none" stroke-width="1" fill="none" fill-rule="evenodd">
        <g id="Budicon-Outline/Building/house-a" transform="translate(0.000000, -1.000000)" fill="#000000" fill-rule="nonzero">
            <path d="M24.8379822,12.1311019 L12.8379822,1.13110192 C12.6466263,0.95629936 12.353538,0.95629936 12.1621822,1.13110192 L0.16218216,12.1311019 C-0.0414175971,12.3177189 -0.0551848331,12.6340521 0.131432178,12.8376519 C0.318049188,13.0412517 0.634382385,13.0550189 0.83798216,12.8684019 L3.00018216,10.8865019 L3.00018216,22.4998019 C3.00018216,23.328229 3.67175504,23.9998019 4.50018216,23.9998019 L20.5001822,23.9998019 C21.3286093,23.9998019 22.0001822,23.328229 22.0001822,22.4998019 L22.0001822,10.8865019 L24.1621822,12.8684019 C24.2938881,12.989122 24.4799928,13.0304076 24.6503924,12.9767069 C24.820792,12.9230062 24.9495988,12.7824776 24.9882924,12.6080569 C25.0269861,12.4336362 24.9696881,12.251822 24.8379822,12.1311019 L24.8379822,12.1311019 Z M18.0001822,22.9998019 L14.0001822,22.9998019 L14.0001822,15.9998019 L18.0001822,15.9998019 L18.0001822,22.9998019 Z M21.0001822,9.99980192 L21.0001822,22.4998019 C20.9998515,22.7758072 20.7761875,22.9994713 20.5001822,22.9998019 L19.0001822,22.9998019 L19.0001822,15.9998019 C19.0001822,15.4475172 18.5524669,14.9998019 18.0001822,14.9998019 L14.0001822,14.9998019 C13.4478974,14.9998019 13.0001822,15.4475172 13.0001822,15.9998019 L13.0001822,22.9998019 L4.50018216,22.9998019 C4.22417685,22.9994713 4.00051277,22.7758072 4.00018216,22.4998019 L4.00018216,9.99980192 L3.96718216,9.99980192 L12.5001822,2.17800192 L21.0330822,9.99980192 L21.0001822,9.99980192 Z M11.0001822,15.4998019 C11.0001822,15.7759443 10.7763245,15.9998019 10.5001822,15.9998019 L6.50018216,15.9998019 C6.22403979,15.9998019 6.00018216,15.7759443 6.00018216,15.4998019 C6.00018216,15.2236595 6.22403979,14.9998019 6.50018216,14.9998019 L10.5001822,14.9998019 C10.7763245,14.9998019 11.0001822,15.2236595 11.0001822,15.4998019 Z M11.0001822,18.4998019 C11.0001822,18.7759443 10.7763245,18.9998019 10.5001822,18.9998019 L6.50018216,18.9998019 C6.22403979,18.9998019 6.00018216,18.7759443 6.00018216,18.4998019 C6.00018216,18.2236595 6.22403979,17.9998019 6.50018216,17.9998019 L10.5001822,17.9998019 C10.7763245,17.9998019 11.0001822,18.2236595 11.0001822,18.4998019 Z M10.0001822,8.49980192 C10.0001822,9.88051379 11.1194703,10.9998019 12.5001822,10.9998019 C13.880894,10.9998019 15.0001822,9.88051379 15.0001822,8.49980192 C15.0001822,7.11909004 13.880894,5.99980192 12.5001822,5.99980192 C11.1194703,5.99980192 10.0001822,7.11909004 10.0001822,8.49980192 Z M12.5001822,6.99980192 C13.3286093,6.99980192 14.0001822,7.67137479 14.0001822,8.49980192 C14.0001822,9.32822904 13.3286093,9.99980192 12.5001822,9.99980192 C11.671755,9.99980192 11.0001822,9.32822904 11.0001822,8.49980192 C11.001119,7.67176316 11.6721434,7.00073877 12.5001822,6.99980192 L12.5001822,6.99980192 Z" id="Shape"></path>
        </g>
    </g>
</svg>