<?xml version="1.0" encoding="UTF-8"?>
<svg width="51px" height="50px" viewBox="0 0 51 50" version="1.1" xmlns="http://www.w3.org/2000/svg" xmlns:xlink="http://www.w3.org/1999/xlink">
    <!-- Generator: Sketch 63.1 (92452) - https://sketch.com -->
    <title>Shape</title>
    <desc>Created with Sketch.</desc>
    <g id="Symbols" stroke="none" stroke-width="1" fill="none" fill-rule="evenodd">
        <g id="Artboard" transform="translate(-54.000000, -25.000000)" fill="#000000" fill-rule="nonzero">
            <g id="noun_Kayak_886082" transform="translate(79.109756, 50.000000) rotate(90.000000) translate(-79.109756, -50.000000) translate(54.109756, 24.500000)">
                <path d="M0.487804878,6.64634146 L6.40243902,12.5609756 C7.25609756,13.4146341 8.41463415,13.8414634 9.51219512,13.8414634 C10.4268293,13.8414634 11.3414634,13.5365854 12.1341463,12.9878049 L15.9756098,16.8292683 C13.5365854,25.6097561 14.3902439,36.8902439 24.3902439,50.0609756 C24.5121951,50.1829268 24.695122,50.304878 24.8780488,50.304878 C25.0609756,50.304878 25.2439024,50.2439024 25.3658537,50.0609756 C29.3292683,44.8780488 32.0731707,39.6341463 33.597561,34.5121951 L36.8902439,37.804878 C36.3414634,38.5365854 36.0365854,39.4512195 36.0365854,40.4268293 C36.0365854,41.5853659 36.5243902,42.7439024 37.3170732,43.5365854 L43.2317073,49.4512195 C43.3536585,49.5731707 43.5365854,49.6341463 43.6585366,49.6341463 C43.7804878,49.6341463 43.9634146,49.5731707 44.0853659,49.4512195 L49.4512195,44.0853659 C49.695122,43.8414634 49.695122,43.4756098 49.4512195,43.2317073 L43.5365854,37.3170732 C42.6829268,36.4634146 41.5853659,36.0365854 40.4268293,36.0365854 C39.4512195,36.0365854 38.4756098,36.3414634 37.6829268,36.9512195 L33.9634146,33.2317073 C36.8902439,22.1341463 34.1463415,11.402439 25.7926829,1.95121951 L25.8536585,1.82926829 C25.7317073,1.70731707 25.5487805,1.64634146 25.4268293,1.64634146 L25.1829268,1.64634146 C25,1.64634146 24.8780488,1.70731707 24.7560976,1.82926829 L24.695122,1.8902439 C21.7073171,5.12195122 18.3536585,9.75609756 16.402439,15.5487805 L12.9878049,12.1341463 C14.3292683,10.4268293 14.2073171,7.86585366 12.6219512,6.2804878 L6.70731707,0.365853659 C6.46341463,0.12195122 6.09756098,0.12195122 5.85365854,0.365853659 L0.487804878,5.73170732 C0.243902439,5.97560976 0.243902439,6.40243902 0.487804878,6.64634146 Z M37.3170732,40.4268293 C37.3170732,39.8170732 37.5,39.2073171 37.804878,38.7195122 L43.4146341,44.3292683 C43.5365854,44.4512195 43.7195122,44.5121951 43.8414634,44.5121951 C43.9634146,44.5121951 44.1463415,44.4512195 44.2682927,44.3292683 C44.5121951,44.0853659 44.5121951,43.7195122 44.2682927,43.4756098 L38.6585366,37.804878 C39.2073171,37.4390244 39.8170732,37.195122 40.4878049,37.195122 C41.3414634,37.195122 42.1341463,37.5 42.7439024,38.1097561 L48.2317073,43.597561 L43.7804878,48.1707317 L38.2926829,42.6829268 C37.6829268,42.0731707 37.3170732,41.2804878 37.3170732,40.4268293 Z M33.0487805,32.1341463 L30,29.0853659 C30.7926829,27.6829268 31.2804878,25.9146341 31.2804878,23.9634146 C31.2804878,19.3292683 28.4756098,15.5487805 25.0609756,15.5487805 C22.9878049,15.5487805 21.1585366,16.9512195 20,19.0853659 L17.3780488,16.4634146 C18.7804878,11.7682927 21.402439,7.25609756 25.2439024,2.98780488 C32.9268293,11.8292683 35.5487805,21.8292683 33.0487805,32.1341463 Z M28.4146341,29.2682927 C27.5,30.4878049 26.3414634,31.2195122 25,31.2195122 C22.2560976,31.2195122 20,27.9878049 20,24.0243902 C20,23.0487805 20.1219512,22.1341463 20.3658537,21.2804878 L28.4146341,29.2682927 Z M20.9146341,20 C21.8292683,18.0487805 23.3536585,16.7682927 25.0609756,16.7682927 C27.804878,16.7682927 30.0609756,20 30.0609756,23.9634146 C30.0609756,25.5487805 29.695122,27.0121951 29.0853659,28.1707317 L20.9146341,20 Z M17.0121951,17.8658537 L19.4512195,20.304878 C19.0243902,21.402439 18.8414634,22.6829268 18.8414634,23.9634146 C18.8414634,28.597561 21.6463415,32.3780488 25.0609756,32.3780488 C26.7073171,32.3780488 28.1707317,31.5243902 29.3292683,30.0609756 L32.7439024,33.4756098 C31.3414634,38.4756098 28.7804878,43.597561 25,48.6585366 C17.195122,38.2317073 14.5731707,27.6829268 17.0121951,17.8658537 Z M1.82926829,6.2195122 L6.34146341,1.70731707 L11.8292683,7.19512195 C12.9268293,8.29268293 13.0487805,10.0609756 12.195122,11.2804878 L6.64634146,5.73170732 C6.40243902,5.48780488 6.03658537,5.48780488 5.79268293,5.73170732 C5.54878049,5.97560976 5.54878049,6.34146341 5.79268293,6.58536585 L11.3414634,12.1341463 C10.1219512,12.9268293 8.41463415,12.804878 7.37804878,11.7073171 L1.82926829,6.2195122 Z" id="Shape"></path>
            </g>
        </g>
    </g>
</svg>