<?xml version="1.0" encoding="UTF-8"?>
<svg width="25px" height="19px" viewBox="0 0 25 19" version="1.1" xmlns="http://www.w3.org/2000/svg" xmlns:xlink="http://www.w3.org/1999/xlink">
    <!-- Generator: Sketch 63.1 (92452) - https://sketch.com -->
    <title>Shape</title>
    <desc>Created with Sketch.</desc>
    <g id="Hive" stroke="none" stroke-width="1" fill="none" fill-rule="evenodd">
        <g id="Budicon-Outline/Tech/laptop-wifi" transform="translate(0.000000, -3.000000)" fill="#000000" fill-rule="nonzero">
            <path d="M24.5,18 L24,18 L24,13.5 C24,13.2238576 23.7761424,13 23.5,13 C23.2238576,13 23,13.2238576 23,13.5 L23,18 L2,18 L2,4.5 C2,4.22385763 2.22385763,4 2.5,4 L13.5,4 C13.7761424,4 14,3.77614237 14,3.5 C14,3.22385763 13.7761424,3 13.5,3 L2.5,3 C1.67193843,3.00088186 1.00088186,3.67193843 1,4.5 L1,18 L0.5,18 C0.223857625,18 0,18.2238576 0,18.5 L0,19.5 C0,20.1630412 0.263392101,20.798926 0.732233047,21.267767 C1.20107399,21.7366079 1.83695878,22 2.5,22 L22.5,22 C23.1630412,22 23.798926,21.7366079 24.267767,21.267767 C24.7366079,20.798926 25,20.1630412 25,19.5 L25,18.5 C25,18.2238576 24.7761424,18 24.5,18 Z M24,19.5 C23.9991181,20.3280616 23.3280616,20.9991181 22.5,21 L2.5,21 C1.67193843,20.9991181 1.00088186,20.3280616 1,19.5 L1,19 L10,19 L10,20 L15,20 L15,19 L24,19 L24,19.5 Z M16,10 C16,9.44771525 16.4477153,9 17,9 C17.5522847,9 18,9.44771525 18,10 C18,10.5522847 17.5522847,11 17,11 C16.4477153,11 16,10.5522847 16,10 Z M16.002,3.5649 C15.9914792,3.43266933 16.0339338,3.30167724 16.1200192,3.20075671 C16.2061045,3.09983619 16.3287645,3.0372593 16.461,3.0268 C18.3918424,2.86967104 20.2992362,3.53537037 21.713,4.8598 C23.1566482,6.18084515 23.9852555,8.04320086 24,10 C24,10.1816 23.9863,10.36 23.9736,10.5381 C23.9537002,10.7984947 23.7367538,10.9997147 23.4756,11 C23.4619,11 23.4492,11 23.4365,10.9985 C23.1611601,10.9773746 22.9549319,10.7372746 22.9756,10.4619 C22.9883,10.3091 23,10.1563 23,10 C22.9854807,8.32202863 22.2732668,6.72579717 21.0342,5.5942 C19.825729,4.45799195 18.1921785,3.88744306 16.5391,4.0242 C16.2671083,4.03625817 16.0323054,3.83546691 16.002,3.5649 L16.002,3.5649 Z M16.001,6.5405 C15.9848345,6.26309643 16.1963271,6.02498279 16.4737,6.0083 C17.6941608,5.88198097 18.911246,6.27667302 19.8253,7.0952 C20.5998062,7.86284953 21.0245857,8.91519764 21,10.0054 C20.996499,10.1885332 20.9795198,10.3711602 20.9492,10.5518 C20.9129324,10.8032944 20.7011809,10.9923523 20.4472,11 C20.4240005,10.9998622 20.4008408,10.9980576 20.3779,10.9946 C20.2473054,10.9779822 20.128891,10.9095135 20.0493377,10.8046213 C19.9697845,10.6997292 19.935785,10.5672378 19.955,10.437 C19.9800707,10.2943621 19.9951076,10.1501417 20,10.0054 C20.0226316,9.19250677 19.7109556,8.40588904 19.1377,7.8291 C18.4197929,7.20409617 17.4719891,6.9100966 16.5264,7.0191 C16.250797,7.02752144 16.018253,6.81569129 16.001,6.5405 L16.001,6.5405 Z" id="Shape"></path>
        </g>
    </g>
</svg>