<?xml version="1.0" encoding="UTF-8"?>
<svg width="30px" height="30px" viewBox="0 0 30 30" version="1.1" xmlns="http://www.w3.org/2000/svg" xmlns:xlink="http://www.w3.org/1999/xlink">
    <!-- Generator: Sketch 63.1 (92452) - https://sketch.com -->
    <title>noun_Laundry_1914045</title>
    <desc>Created with Sketch.</desc>
    <g id="Symbols" stroke="none" stroke-width="1" fill="none" fill-rule="evenodd">
        <g id="Artboard" transform="translate(-65.000000, -35.000000)" fill="#000000" fill-rule="nonzero">
            <g id="noun_Laundry_1914045" transform="translate(65.000000, 35.000000)">
                <path d="M29.625,9.1739502 L28.877037,9.1739502 C29.4477081,8.68975069 29.8114014,7.96870421 29.8114014,7.16345216 C29.8114014,5.70904541 28.6281738,4.52563478 27.173584,4.52563478 L27.1371002,4.52563478 C27.6293106,4.04615021 27.9364014,3.3775635 27.9364014,2.63781739 C27.9364014,1.18341064 26.7531738,0 25.298584,0 L4.70141602,0 C3.2468262,0 2.06359864,1.18341064 2.06359864,2.63781739 C2.06359864,3.37756346 2.3706894,4.04615021 2.86289977,4.52563477 L2.82641602,4.52563477 C1.3718262,4.52563477 0.188598637,5.70904541 0.188598637,7.16345216 C0.188598637,7.96870425 0.552291862,8.68975069 1.12296296,9.1739502 L0.375,9.1739502 C0.1677246,9.1739502 0,9.34185791 0,9.5489502 L0,13.7578125 C0,13.9649048 0.1677246,14.1328125 0.375,14.1328125 L1.54591369,14.1328125 L2.84765625,27.7946777 C2.96704102,29.0518799 4.00964355,30 5.27270509,30 L24.7272949,30 C25.9903565,30 27.032959,29.0518799 27.1523438,27.7946777 L28.4540863,14.1328125 L29.625,14.1328125 C29.8322754,14.1328125 30,13.9649048 30,13.7578125 L30,9.5489502 C30,9.34185791 29.8322754,9.1739502 29.625,9.1739502 Z M2.81359864,2.63781739 C2.81359864,1.5968628 3.66064455,0.75 4.70141603,0.75 L25.298584,0.75 C26.3393555,0.75 27.1864014,1.5968628 27.1864014,2.63781739 C27.1864014,3.67877197 26.3393555,4.52563477 25.298584,4.52563477 L4.70141603,4.52563477 C3.66064455,4.52563477 2.81359864,3.67877198 2.81359864,2.63781739 Z M0.938598638,7.16345216 C0.938598638,6.12249758 1.78564455,5.27563478 2.82641603,5.27563478 L4.70141603,5.27563478 L25.298584,5.27563478 L27.173584,5.27563478 C28.2143555,5.27563478 29.0614014,6.12249758 29.0614014,7.16345216 C29.0614014,8.20422364 28.2143555,9.05108644 27.173584,9.05108644 L2.82641603,9.05108644 C1.78564455,9.05108644 0.938598638,8.20422364 0.938598638,7.16345216 Z M26.4060058,27.7236328 C26.322876,28.59375 25.6014404,29.25 24.7272949,29.25 L5.27270509,29.25 C4.39855958,29.25 3.67712404,28.59375 3.59399415,27.7236328 L2.29902649,14.1328125 L27.7009735,14.1328125 L26.4060058,27.7236328 Z M29.25,13.3828125 L0.75,13.3828125 L0.75,9.9239502 L29.25,9.9239502 L29.25,13.3828125 Z" id="Shape"></path>
                <path d="M6,17.0028076 L10.0623779,17.0028076 C10.2696533,17.0028076 10.4373779,16.8348999 10.4373779,16.6278076 C10.4373779,16.4207153 10.2696533,16.2528076 10.0623779,16.2528076 L6,16.2528076 C5.7927246,16.2528076 5.625,16.4207153 5.625,16.6278076 C5.625,16.8348999 5.7927246,17.0028076 6,17.0028076 Z" id="Shape"></path>
                <path d="M12.9686279,17.0028076 L17.0313721,17.0028076 C17.2386475,17.0028076 17.4063721,16.8348999 17.4063721,16.6278076 C17.4063721,16.4207153 17.2386475,16.2528076 17.0313721,16.2528076 L12.9686279,16.2528076 C12.7613525,16.2528076 12.5936279,16.4207153 12.5936279,16.6278076 C12.5936279,16.8348999 12.7613525,17.0028076 12.9686279,17.0028076 Z" id="Shape"></path>
                <path d="M19.9376221,17.0028076 L24,17.0028076 C24.2072754,17.0028076 24.375,16.8348999 24.375,16.6278076 C24.375,16.4207153 24.2072754,16.2528076 24,16.2528076 L19.9376221,16.2528076 C19.7303467,16.2528076 19.5626221,16.4207153 19.5626221,16.6278076 C19.5626221,16.8348999 19.7303467,17.0028076 19.9376221,17.0028076 Z" id="Shape"></path>
                <path d="M6,19.5653686 L10.0623779,19.5653686 C10.2696533,19.5653686 10.4373779,19.3974609 10.4373779,19.1903686 C10.4373779,18.9832764 10.2696533,18.8153686 10.0623779,18.8153686 L6,18.8153686 C5.7927246,18.8153686 5.625,18.9832764 5.625,19.1903686 C5.625,19.3974609 5.7927246,19.5653686 6,19.5653686 Z" id="Shape"></path>
                <path d="M12.9686279,19.5653686 L17.0313721,19.5653686 C17.2386475,19.5653686 17.4063721,19.3974609 17.4063721,19.1903686 C17.4063721,18.9832764 17.2386475,18.8153686 17.0313721,18.8153686 L12.9686279,18.8153686 C12.7613525,18.8153686 12.5936279,18.9832764 12.5936279,19.1903686 C12.5936279,19.3974609 12.7613525,19.5653686 12.9686279,19.5653686 Z" id="Shape"></path>
                <path d="M19.9376221,19.5653686 L24,19.5653686 C24.2072754,19.5653686 24.375,19.3974609 24.375,19.1903686 C24.375,18.9832764 24.2072754,18.8153686 24,18.8153686 L19.9376221,18.8153686 C19.7303467,18.8153686 19.5626221,18.9832764 19.5626221,19.1903686 C19.5626221,19.3974609 19.7303467,19.5653686 19.9376221,19.5653686 Z" id="Shape"></path>
                <path d="M6,22.1277466 L10.0623779,22.1277466 C10.2696533,22.1277466 10.4373779,21.9598389 10.4373779,21.7527466 C10.4373779,21.5456543 10.2696533,21.3777466 10.0623779,21.3777466 L6,21.3777466 C5.7927246,21.3777466 5.625,21.5456543 5.625,21.7527466 C5.625,21.9598389 5.7927246,22.1277466 6,22.1277466 Z" id="Shape"></path>
                <path d="M12.9686279,22.1277466 L17.0313721,22.1277466 C17.2386475,22.1277466 17.4063721,21.9598389 17.4063721,21.7527466 C17.4063721,21.5456543 17.2386475,21.3777466 17.0313721,21.3777466 L12.9686279,21.3777466 C12.7613525,21.3777466 12.5936279,21.5456543 12.5936279,21.7527466 C12.5936279,21.9598389 12.7613525,22.1277466 12.9686279,22.1277466 Z" id="Shape"></path>
                <path d="M19.9376221,22.1277466 L24,22.1277466 C24.2072754,22.1277466 24.375,21.9598389 24.375,21.7527466 C24.375,21.5456543 24.2072754,21.3777466 24,21.3777466 L19.9376221,21.3777466 C19.7303467,21.3777466 19.5626221,21.5456543 19.5626221,21.7527466 C19.5626221,21.9598389 19.7303467,22.1277466 19.9376221,22.1277466 Z" id="Shape"></path>
                <path d="M6,24.6903076 L10.0623779,24.6903076 C10.2696533,24.6903076 10.4373779,24.5223999 10.4373779,24.3153076 C10.4373779,24.1082153 10.2696533,23.9403076 10.0623779,23.9403076 L6,23.9403076 C5.7927246,23.9403076 5.625,24.1082153 5.625,24.3153076 C5.625,24.5223999 5.7927246,24.6903076 6,24.6903076 Z" id="Shape"></path>
                <path d="M12.9686279,24.6903076 L17.0313721,24.6903076 C17.2386475,24.6903076 17.4063721,24.5223999 17.4063721,24.3153076 C17.4063721,24.1082153 17.2386475,23.9403076 17.0313721,23.9403076 L12.9686279,23.9403076 C12.7613525,23.9403076 12.5936279,24.1082153 12.5936279,24.3153076 C12.5936279,24.5223999 12.7613525,24.6903076 12.9686279,24.6903076 Z" id="Shape"></path>
                <path d="M19.9376221,24.6903076 L24,24.6903076 C24.2072754,24.6903076 24.375,24.5223999 24.375,24.3153076 C24.375,24.1082153 24.2072754,23.9403076 24,23.9403076 L19.9376221,23.9403076 C19.7303467,23.9403076 19.5626221,24.1082153 19.5626221,24.3153076 C19.5626221,24.5223999 19.7303467,24.6903076 19.9376221,24.6903076 Z" id="Shape"></path>
                <path d="M6,27.2528686 L10.0623779,27.2528686 C10.2696533,27.2528686 10.4373779,27.0849609 10.4373779,26.8778686 C10.4373779,26.6707764 10.2696533,26.5028686 10.0623779,26.5028686 L6,26.5028686 C5.7927246,26.5028686 5.625,26.6707764 5.625,26.8778686 C5.625,27.0849609 5.7927246,27.2528686 6,27.2528686 Z" id="Shape"></path>
                <path d="M12.9686279,27.2528686 L17.0313721,27.2528686 C17.2386475,27.2528686 17.4063721,27.0849609 17.4063721,26.8778686 C17.4063721,26.6707764 17.2386475,26.5028686 17.0313721,26.5028686 L12.9686279,26.5028686 C12.7613525,26.5028686 12.5936279,26.6707764 12.5936279,26.8778686 C12.5936279,27.0849609 12.7613525,27.2528686 12.9686279,27.2528686 Z" id="Shape"></path>
                <path d="M19.9376221,27.2528686 L24,27.2528686 C24.2072754,27.2528686 24.375,27.0849609 24.375,26.8778686 C24.375,26.6707764 24.2072754,26.5028686 24,26.5028686 L19.9376221,26.5028686 C19.7303467,26.5028686 19.5626221,26.6707764 19.5626221,26.8778686 C19.5626221,27.0849609 19.7303467,27.2528686 19.9376221,27.2528686 Z" id="Shape"></path>
            </g>
        </g>
    </g>
</svg>