<?xml version="1.0" encoding="UTF-8"?>
<svg width="24px" height="25px" viewBox="0 0 24 25" version="1.1" xmlns="http://www.w3.org/2000/svg" xmlns:xlink="http://www.w3.org/1999/xlink">
    <!-- Generator: Sketch 63.1 (92452) - https://sketch.com -->
    <title>Shape</title>
    <desc>Created with Sketch.</desc>
    <g id="Hive" stroke="none" stroke-width="1" fill="none" fill-rule="evenodd">
        <g id="Budicon-Outline/User/group" fill="#000000" fill-rule="nonzero">
            <path d="M12.0000202,7 C13.6568744,7 15.0000202,5.65685425 15.0000202,4 C15.0000202,2.34314575 13.6568744,1 12.0000202,1 C10.3431659,1 9.00002018,2.34314575 9.00002018,4 C9.00002018,5.65685425 10.3431659,7 12.0000202,7 Z M12.0000202,2 C13.1045897,2 14.0000202,2.8954305 14.0000202,4 C14.0000202,5.1045695 13.1045897,6 12.0000202,6 C10.8954507,6 10.0000202,5.1045695 10.0000202,4 C10.0012876,2.89595593 10.8959761,2.00126747 12.0000202,2 Z M19.0000202,6 C20.6568744,6 22.0000202,4.65685425 22.0000202,3 C22.0000202,1.34314575 20.6568744,0 19.0000202,0 C17.3431659,0 16.0000202,1.34314575 16.0000202,3 C16.0000202,4.65685425 17.3431659,6 19.0000202,6 Z M19.0000202,1 C20.1045897,1 21.0000202,1.8954305 21.0000202,3 C21.0000202,4.1045695 20.1045897,5 19.0000202,5 C17.8954507,5 17.0000202,4.1045695 17.0000202,3 C17.0012876,1.89595593 17.8959761,1.00126747 19.0000202,1 Z M5.00002018,6 C6.65687443,6 8.00002018,4.65685425 8.00002018,3 C8.00002018,1.34314575 6.65687443,0 5.00002018,0 C3.34316593,0 2.00002018,1.34314575 2.00002018,3 C2.00002018,4.65685425 3.34316593,6 5.00002018,6 L5.00002018,6 Z M5.00002018,1 C6.10458968,1 7.00002018,1.8954305 7.00002018,3 C7.00002018,4.1045695 6.10458968,5 5.00002018,5 C3.89545068,5 3.00002018,4.1045695 3.00002018,3 C3.00128765,1.89595593 3.89597611,1.00126747 5.00002018,1 Z M19.0000202,7 C17.4218959,7.00284927 15.9386397,7.75397591 15.0024202,9.0244 L15.0035202,9.0254 C13.2344169,7.65788251 10.7649235,7.65788251 8.99582018,9.0254 L8.99752018,9.0239 C7.7169878,7.28975457 5.46706182,6.57486135 3.42042078,7.2518281 C1.37377974,7.92879486 -0.0060859596,9.84431304 7.77156117e-14,12 L7.77156117e-14,14.5 C7.77156117e-14,15.3284271 0.671593059,16 1.50002018,16 L2.00002018,16 L2.00002018,20.5 C2.00002018,21.3284271 2.67159306,22 3.50002018,22 L6.50002018,22 C7.32844731,22 8.00002018,21.3284271 8.00002018,20.5 L8.00002018,17.9082 C8.16016871,17.9673216 8.32931494,17.9983769 8.50002018,18 L9.00002018,18 L9.00002018,23.5 C9.00002018,24.3284271 9.67159306,25 10.5000202,25 L13.5000202,25 C14.3284473,25 15.0000202,24.3284271 15.0000202,23.5 L15.0000202,18 L15.5000202,18 C15.6707254,17.9983769 15.8398717,17.9673216 16.0000202,17.9082 L16.0000202,20.5 C16.0000202,21.3284271 16.6715931,22 17.5000202,22 L20.5000202,22 C21.3284473,22 22.0000202,21.3284271 22.0000202,20.5 L22.0000202,16 L22.5000202,16 C23.3284473,16 24.0000202,15.3284271 24.0000202,14.5 L24.0000202,12 C24.0000202,10.6739176 23.473236,9.40214799 22.5355541,8.46446609 C21.5978722,7.5267842 20.3261026,7 19.0000202,7 Z M7.00001483,13 L7.00001483,20.5 C6.99963462,20.7759825 6.77600269,20.9996144 6.50001483,21 L3.50001483,21 C3.22403767,20.9996144 3.00040575,20.7759825 3.00001483,20.5 L3.00001483,16 C3.00001483,15.4477153 2.55230493,15 2.00001483,15 L1.50001483,15 C1.22403767,14.9996144 1.00040575,14.7759825 1.00001483,14.5 L1.00001483,12 C0.997175785,10.2554341 2.127093,8.71093102 3.79064076,8.18545314 C5.45418853,7.65997526 7.26630203,8.27515605 8.26612018,9.7048 C7.45427215,10.6107704 7.00367854,11.7835025 7.00001483,13 Z M16.0000202,16.5 C15.9996896,16.7760053 15.7760255,16.9996694 15.5000202,17 L15.0000202,17 C14.4477354,17 14.0000202,17.4477153 14.0000202,18 L14.0000202,23.5 C13.9996896,23.7760053 13.7760255,23.9996694 13.5000202,24 L10.5000202,24 C10.2240149,23.9996694 10.0003508,23.7760053 10.0000202,23.5 L10.0000202,18 C10.0000202,17.4477153 9.55230493,17 9.00002018,17 L8.50002018,17 C8.22401487,16.9996694 8.0003508,16.7760053 8.00002018,16.5 L8.00002018,13 C8.00002018,10.790861 9.79088118,9 12.0000202,9 C14.2091592,9 16.0000202,10.790861 16.0000202,13 L16.0000202,16.5 Z M23.0000255,14.5 C22.9996346,14.7759825 22.7760027,14.9996144 22.5000202,15 L22.0000202,15 C21.4477354,15 21.0000202,15.4477153 21.0000202,16 L21.0000202,20.5 C20.9996346,20.7759825 20.7760027,20.9996144 20.5000202,21 L17.5000202,21 C17.2240377,20.9996144 17.0004058,20.7759825 17.0000202,20.5 L17.0000202,13 C16.9963618,11.7835025 16.5457682,10.6107704 15.7339202,9.7048 C16.7337383,8.27515605 18.5458518,7.65997526 20.2093996,8.18545314 C21.8729474,8.71093102 23.0028646,10.2554341 23.0000255,12 L23.0000255,14.5 Z" id="Shape"></path>
        </g>
    </g>
</svg>