<?xml version="1.0" encoding="UTF-8"?>
<svg width="301px" height="150px" viewBox="0 0 301 150" version="1.1" xmlns="http://www.w3.org/2000/svg" xmlns:xlink="http://www.w3.org/1999/xlink">
    <!-- Generator: Sketch 63.1 (92452) - https://sketch.com -->
    <title>sleeping-layout</title>
    <desc>Created with Sketch.</desc>
    <g id="sleeping-layout" stroke="none" stroke-width="1" fill="none" fill-rule="evenodd">
        <g>
            <g id="Rectangle-2">
                <path d="M300.5,10.5 L0.5,10.5 L0.5,149.5 L300.5,149.5 L300.5,10.5 Z" id="Mask" stroke="#DDDDDD" fill="#FFFFFF"></path>
                <polygon fill="#DDDDDD" points="23 0 278 0 301 10 0 10"></polygon>
            </g>
            <line x1="23" y1="80" x2="278" y2="80" id="Line" stroke="#DDDDDD" stroke-linecap="square"></line>
            <line x1="74.4565844" y1="59" x2="74.4565844" y2="34" id="Line" stroke="#DDDDDD" stroke-linecap="square"></line>
            <line x1="140" y1="59" x2="140" y2="34" id="Line" stroke="#DDDDDD" stroke-linecap="square"></line>
            <g id="queen-bed" transform="translate(89.000000, 28.000000)" fill="#4A4A4A">
                <g id="Group-4" transform="translate(0.000000, 5.000000)">
                    <g id="noun_Bed_1216322" transform="translate(6.000000, 0.000000)" fill-rule="nonzero">
                        <path d="M22.6730075,4.01680107 C20.6926006,1.89122075 17.1736583,0.805747253 12.2141725,0.790625025 C12.2108456,0.790322581 12.2075187,0.790322581 12.2041918,0.790322581 L12.1083169,0.790322581 C12.10499,0.790322581 12.1016631,0.790322581 12.0983362,0.790625025 C7.13885045,0.805747253 3.61990808,1.89122075 1.6391987,4.01680107 C-0.0538859,5.83358549 0.0592283626,7.72598106 0.0640674754,7.78405041 L0.0640674754,24.6894911 C0.0640674754,24.856743 0.199562635,24.9919357 0.366512028,24.9919357 C0.533461421,24.9919357 0.66895658,24.856743 0.66895658,24.6894911 L0.668654136,20.9996676 L23.6432497,20.9996676 L23.6432497,24.6894911 C23.6432497,24.856743 23.7787448,24.9919357 23.9456942,24.9919357 C24.1126436,24.9919357 24.2481388,24.856743 24.2481388,24.6894911 L24.2475339,7.80552397 C24.2529779,7.72598106 24.3660922,5.83358549 22.6730075,4.01680107 Z M0.668351691,13.6756703 C1.04882694,13.5416874 3.40275289,12.7523071 7.12463555,12.3403776 C10.858616,11.9275408 16.7502359,11.8277341 23.6432497,13.6832314 L23.6432497,17.012541 L0.668351691,17.012541 L0.668351691,13.6756703 Z M10.7161646,11.5095624 C7.50148146,11.5891053 4.89380453,12.0037568 3.10393767,12.3948176 L3.10393767,9.34375697 C3.10393767,8.92396393 3.44539757,8.58250403 3.86519061,8.58250403 L9.95491167,8.58250403 C10.3747047,8.58250403 10.7161646,8.92396393 10.7161646,9.34375697 L10.7161646,11.5095624 L10.7161646,11.5095624 Z M21.2082686,12.4798045 C18.4762869,11.907277 15.9185134,11.6238864 13.5963441,11.5313384 L13.5963441,9.34345452 C13.5963441,8.92366149 13.937804,8.58220159 14.357597,8.58220159 L20.4470156,8.58220159 C20.8668087,8.58220159 21.2082686,8.92366149 21.2082686,9.34345452 L21.2082686,12.4798045 Z M2.09498265,4.41512054 C3.94140664,2.44620651 7.41982144,1.40247035 12.1561031,1.39551413 C16.8923848,1.40247035 20.3707996,2.44650895 22.2172236,4.41512054 C23.7361002,6.03471112 23.6450643,7.74684973 23.6432497,7.78435286 L23.6432497,13.0589859 C23.025053,12.8947585 22.4153248,12.7471655 21.8128552,12.6125777 L21.8128552,9.34375697 C21.8128552,8.59067003 21.2001026,7.97761493 20.4467132,7.97761493 L14.3572946,7.97761493 C13.6042076,7.97761493 12.9911525,8.59036759 12.9911525,9.34375697 L12.9911525,11.5134942 C12.4192299,11.498372 11.8615221,11.4935328 11.3210537,11.4992793 L11.3210537,9.34375697 C11.3210537,8.59067003 10.7083011,7.97761493 9.95491167,7.97761493 L3.86519061,7.97761493 C3.11180123,7.97761493 2.49904857,8.59036759 2.49904857,9.34375697 L2.49904857,12.5333372 C1.62135448,12.7426288 0.996806475,12.9313543 0.668351691,13.0381172 L0.668049247,7.76378663 C0.667141913,7.74654729 0.575803658,6.03471112 2.09498265,4.41512054 Z M0.668654136,20.3947785 L0.668654136,17.6171277 L23.6435521,17.6171277 L23.6435521,20.3947785 L0.668654136,20.3947785 Z" id="Shape"></path>
                    </g>
                    <text id="Queen" font-family="Lato-Regular, Lato" font-size="12" font-weight="normal">
                        <tspan x="0.5" y="38.3346717">Queen</tspan>
                    </text>
                </g>
            </g>
            <g id="queen-bed" transform="translate(132.000000, 88.613135)" fill="#4A4A4A">
                <g id="Group-4" transform="translate(0.000000, 5.000000)">
                    <g id="noun_Bed_1216322" transform="translate(6.000000, 0.000000)" fill-rule="nonzero">
                        <path d="M22.6730075,4.01680107 C20.6926006,1.89122075 17.1736583,0.805747253 12.2141725,0.790625025 C12.2108456,0.790322581 12.2075187,0.790322581 12.2041918,0.790322581 L12.1083169,0.790322581 C12.10499,0.790322581 12.1016631,0.790322581 12.0983362,0.790625025 C7.13885045,0.805747253 3.61990808,1.89122075 1.6391987,4.01680107 C-0.0538859,5.83358549 0.0592283626,7.72598106 0.0640674754,7.78405041 L0.0640674754,24.6894911 C0.0640674754,24.856743 0.199562635,24.9919357 0.366512028,24.9919357 C0.533461421,24.9919357 0.66895658,24.856743 0.66895658,24.6894911 L0.668654136,20.9996676 L23.6432497,20.9996676 L23.6432497,24.6894911 C23.6432497,24.856743 23.7787448,24.9919357 23.9456942,24.9919357 C24.1126436,24.9919357 24.2481388,24.856743 24.2481388,24.6894911 L24.2475339,7.80552397 C24.2529779,7.72598106 24.3660922,5.83358549 22.6730075,4.01680107 Z M0.668351691,13.6756703 C1.04882694,13.5416874 3.40275289,12.7523071 7.12463555,12.3403776 C10.858616,11.9275408 16.7502359,11.8277341 23.6432497,13.6832314 L23.6432497,17.012541 L0.668351691,17.012541 L0.668351691,13.6756703 Z M10.7161646,11.5095624 C7.50148146,11.5891053 4.89380453,12.0037568 3.10393767,12.3948176 L3.10393767,9.34375697 C3.10393767,8.92396393 3.44539757,8.58250403 3.86519061,8.58250403 L9.95491167,8.58250403 C10.3747047,8.58250403 10.7161646,8.92396393 10.7161646,9.34375697 L10.7161646,11.5095624 L10.7161646,11.5095624 Z M21.2082686,12.4798045 C18.4762869,11.907277 15.9185134,11.6238864 13.5963441,11.5313384 L13.5963441,9.34345452 C13.5963441,8.92366149 13.937804,8.58220159 14.357597,8.58220159 L20.4470156,8.58220159 C20.8668087,8.58220159 21.2082686,8.92366149 21.2082686,9.34345452 L21.2082686,12.4798045 Z M2.09498265,4.41512054 C3.94140664,2.44620651 7.41982144,1.40247035 12.1561031,1.39551413 C16.8923848,1.40247035 20.3707996,2.44650895 22.2172236,4.41512054 C23.7361002,6.03471112 23.6450643,7.74684973 23.6432497,7.78435286 L23.6432497,13.0589859 C23.025053,12.8947585 22.4153248,12.7471655 21.8128552,12.6125777 L21.8128552,9.34375697 C21.8128552,8.59067003 21.2001026,7.97761493 20.4467132,7.97761493 L14.3572946,7.97761493 C13.6042076,7.97761493 12.9911525,8.59036759 12.9911525,9.34375697 L12.9911525,11.5134942 C12.4192299,11.498372 11.8615221,11.4935328 11.3210537,11.4992793 L11.3210537,9.34375697 C11.3210537,8.59067003 10.7083011,7.97761493 9.95491167,7.97761493 L3.86519061,7.97761493 C3.11180123,7.97761493 2.49904857,8.59036759 2.49904857,9.34375697 L2.49904857,12.5333372 C1.62135448,12.7426288 0.996806475,12.9313543 0.668351691,13.0381172 L0.668049247,7.76378663 C0.667141913,7.74654729 0.575803658,6.03471112 2.09498265,4.41512054 Z M0.668654136,20.3947785 L0.668654136,17.6171277 L23.6435521,17.6171277 L23.6435521,20.3947785 L0.668654136,20.3947785 Z" id="Shape"></path>
                    </g>
                    <text id="Queen" font-family="Lato-Regular, Lato" font-size="12" font-weight="normal">
                        <tspan x="0.5" y="38.3346717">Queen</tspan>
                    </text>
                </g>
            </g>
            <g id="queen-bed" transform="translate(23.000000, 28.000000)" fill="#4A4A4A">
                <g id="Group-4" transform="translate(0.000000, 5.000000)">
                    <g id="noun_Bed_1216322" transform="translate(6.000000, 0.000000)" fill-rule="nonzero">
                        <path d="M22.6730075,4.01680107 C20.6926006,1.89122075 17.1736583,0.805747253 12.2141725,0.790625025 C12.2108456,0.790322581 12.2075187,0.790322581 12.2041918,0.790322581 L12.1083169,0.790322581 C12.10499,0.790322581 12.1016631,0.790322581 12.0983362,0.790625025 C7.13885045,0.805747253 3.61990808,1.89122075 1.6391987,4.01680107 C-0.0538859,5.83358549 0.0592283626,7.72598106 0.0640674754,7.78405041 L0.0640674754,24.6894911 C0.0640674754,24.856743 0.199562635,24.9919357 0.366512028,24.9919357 C0.533461421,24.9919357 0.66895658,24.856743 0.66895658,24.6894911 L0.668654136,20.9996676 L23.6432497,20.9996676 L23.6432497,24.6894911 C23.6432497,24.856743 23.7787448,24.9919357 23.9456942,24.9919357 C24.1126436,24.9919357 24.2481388,24.856743 24.2481388,24.6894911 L24.2475339,7.80552397 C24.2529779,7.72598106 24.3660922,5.83358549 22.6730075,4.01680107 Z M0.668351691,13.6756703 C1.04882694,13.5416874 3.40275289,12.7523071 7.12463555,12.3403776 C10.858616,11.9275408 16.7502359,11.8277341 23.6432497,13.6832314 L23.6432497,17.012541 L0.668351691,17.012541 L0.668351691,13.6756703 Z M10.7161646,11.5095624 C7.50148146,11.5891053 4.89380453,12.0037568 3.10393767,12.3948176 L3.10393767,9.34375697 C3.10393767,8.92396393 3.44539757,8.58250403 3.86519061,8.58250403 L9.95491167,8.58250403 C10.3747047,8.58250403 10.7161646,8.92396393 10.7161646,9.34375697 L10.7161646,11.5095624 L10.7161646,11.5095624 Z M21.2082686,12.4798045 C18.4762869,11.907277 15.9185134,11.6238864 13.5963441,11.5313384 L13.5963441,9.34345452 C13.5963441,8.92366149 13.937804,8.58220159 14.357597,8.58220159 L20.4470156,8.58220159 C20.8668087,8.58220159 21.2082686,8.92366149 21.2082686,9.34345452 L21.2082686,12.4798045 Z M2.09498265,4.41512054 C3.94140664,2.44620651 7.41982144,1.40247035 12.1561031,1.39551413 C16.8923848,1.40247035 20.3707996,2.44650895 22.2172236,4.41512054 C23.7361002,6.03471112 23.6450643,7.74684973 23.6432497,7.78435286 L23.6432497,13.0589859 C23.025053,12.8947585 22.4153248,12.7471655 21.8128552,12.6125777 L21.8128552,9.34375697 C21.8128552,8.59067003 21.2001026,7.97761493 20.4467132,7.97761493 L14.3572946,7.97761493 C13.6042076,7.97761493 12.9911525,8.59036759 12.9911525,9.34375697 L12.9911525,11.5134942 C12.4192299,11.498372 11.8615221,11.4935328 11.3210537,11.4992793 L11.3210537,9.34375697 C11.3210537,8.59067003 10.7083011,7.97761493 9.95491167,7.97761493 L3.86519061,7.97761493 C3.11180123,7.97761493 2.49904857,8.59036759 2.49904857,9.34375697 L2.49904857,12.5333372 C1.62135448,12.7426288 0.996806475,12.9313543 0.668351691,13.0381172 L0.668049247,7.76378663 C0.667141913,7.74654729 0.575803658,6.03471112 2.09498265,4.41512054 Z M0.668654136,20.3947785 L0.668654136,17.6171277 L23.6435521,17.6171277 L23.6435521,20.3947785 L0.668654136,20.3947785 Z" id="Shape"></path>
                    </g>
                    <text id="Queen" font-family="Lato-Regular, Lato" font-size="12" font-weight="normal">
                        <tspan x="0.5" y="38.3346717">Queen</tspan>
                    </text>
                </g>
            </g>
            <g id="Group-4" transform="translate(153.479637, 27.000000)" fill="#4A4A4A">
                <g id="double-bed" transform="translate(0.133410, 0.797679)">
                    <g id="Group-4" transform="translate(0.000000, 5.000000)">
                        <g id="noun_Bed_1216322" transform="translate(7.500000, 0.000000)" fill-rule="nonzero">
                            <path d="M22.6730075,4.01680107 C20.6926006,1.89122075 17.1736583,0.805747253 12.2141725,0.790625025 C12.2108456,0.790322581 12.2075187,0.790322581 12.2041918,0.790322581 L12.1083169,0.790322581 C12.10499,0.790322581 12.1016631,0.790322581 12.0983362,0.790625025 C7.13885045,0.805747253 3.61990808,1.89122075 1.6391987,4.01680107 C-0.0538859,5.83358549 0.0592283626,7.72598106 0.0640674754,7.78405041 L0.0640674754,24.6894911 C0.0640674754,24.856743 0.199562635,24.9919357 0.366512028,24.9919357 C0.533461421,24.9919357 0.66895658,24.856743 0.66895658,24.6894911 L0.668654136,20.9996676 L23.6432497,20.9996676 L23.6432497,24.6894911 C23.6432497,24.856743 23.7787448,24.9919357 23.9456942,24.9919357 C24.1126436,24.9919357 24.2481388,24.856743 24.2481388,24.6894911 L24.2475339,7.80552397 C24.2529779,7.72598106 24.3660922,5.83358549 22.6730075,4.01680107 Z M0.668351691,13.6756703 C1.04882694,13.5416874 3.40275289,12.7523071 7.12463555,12.3403776 C10.858616,11.9275408 16.7502359,11.8277341 23.6432497,13.6832314 L23.6432497,17.012541 L0.668351691,17.012541 L0.668351691,13.6756703 Z M10.7161646,11.5095624 C7.50148146,11.5891053 4.89380453,12.0037568 3.10393767,12.3948176 L3.10393767,9.34375697 C3.10393767,8.92396393 3.44539757,8.58250403 3.86519061,8.58250403 L9.95491167,8.58250403 C10.3747047,8.58250403 10.7161646,8.92396393 10.7161646,9.34375697 L10.7161646,11.5095624 L10.7161646,11.5095624 Z M21.2082686,12.4798045 C18.4762869,11.907277 15.9185134,11.6238864 13.5963441,11.5313384 L13.5963441,9.34345452 C13.5963441,8.92366149 13.937804,8.58220159 14.357597,8.58220159 L20.4470156,8.58220159 C20.8668087,8.58220159 21.2082686,8.92366149 21.2082686,9.34345452 L21.2082686,12.4798045 Z M2.09498265,4.41512054 C3.94140664,2.44620651 7.41982144,1.40247035 12.1561031,1.39551413 C16.8923848,1.40247035 20.3707996,2.44650895 22.2172236,4.41512054 C23.7361002,6.03471112 23.6450643,7.74684973 23.6432497,7.78435286 L23.6432497,13.0589859 C23.025053,12.8947585 22.4153248,12.7471655 21.8128552,12.6125777 L21.8128552,9.34375697 C21.8128552,8.59067003 21.2001026,7.97761493 20.4467132,7.97761493 L14.3572946,7.97761493 C13.6042076,7.97761493 12.9911525,8.59036759 12.9911525,9.34375697 L12.9911525,11.5134942 C12.4192299,11.498372 11.8615221,11.4935328 11.3210537,11.4992793 L11.3210537,9.34375697 C11.3210537,8.59067003 10.7083011,7.97761493 9.95491167,7.97761493 L3.86519061,7.97761493 C3.11180123,7.97761493 2.49904857,8.59036759 2.49904857,9.34375697 L2.49904857,12.5333372 C1.62135448,12.7426288 0.996806475,12.9313543 0.668351691,13.0381172 L0.668049247,7.76378663 C0.667141913,7.74654729 0.575803658,6.03471112 2.09498265,4.41512054 Z M0.668654136,20.3947785 L0.668654136,17.6171277 L23.6435521,17.6171277 L23.6435521,20.3947785 L0.668654136,20.3947785 Z" id="Shape"></path>
                        </g>
                        <text id="Double" font-family="Lato-Regular, Lato" font-size="12" font-weight="normal">
                            <tspan x="0.5" y="38.3346717">Double</tspan>
                        </text>
                    </g>
                </g>
                <g id="single-bed" transform="translate(44.491528, 0.782254)">
                    <g id="Group-4" transform="translate(4.000000, 31.000000)" font-family="Lato-Regular, Lato" font-size="12" font-weight="normal">
                        <text id="Single">
                            <tspan x="0" y="12.3346717">Single</tspan>
                        </text>
                    </g>
                    <g id="noun_Bed_1614372" transform="translate(7.502439, 5.000000)">
                        <path d="M23.3620039,3.64241427 C21.3158407,1.44628029 17.680925,0.325249035 12.5575497,0.309627083 C12.5541129,0.309627083 12.550676,0.309627083 12.5472392,0.309627083 L12.448196,0.309627083 C12.4447592,0.309627083 12.4413224,0.309627083 12.4378855,0.309627083 C7.31451024,0.325249035 3.67959451,1.44659273 1.63311883,3.64241427 C-0.115914882,5.51923555 0.000937317104,7.47416659 0.00593634166,7.53446732 L0.00593634166,24.9982472 C0.00593634166,25.1707135 0.145909029,25.3106862 0.318375376,25.3106862 C0.490841723,25.3106862 0.630814411,25.1707135 0.630814411,24.9982472 L0.630501972,21.1864909 L24.3643084,21.1864909 L24.3643084,24.9982472 C24.3643084,25.1707135 24.504281,25.3106862 24.6767474,25.3106862 C24.8492137,25.3106862 24.9891864,25.1707135 24.9891864,24.9982472 L24.9885616,7.55633805 C24.9944979,7.47416659 25.1110377,5.51954799 23.3620039,3.64241427 Z M0.630189533,12.1263838 C1.02511247,11.9876609 3.47213499,11.1681333 7.32388341,10.7441535 C11.1759443,10.3201738 17.2541332,10.2198808 24.3646208,12.1341948 L24.3646208,17.0676071 L0.630189533,17.0676071 L0.630189533,12.1263838 Z M17.9696186,10.2430013 C13.675769,9.70498129 9.93993545,9.82933203 7.02581657,10.1655164 L7.02581657,6.22316069 C7.02581657,5.56985067 7.55758781,5.03839187 8.21089783,5.03839187 L16.7845374,5.03839187 C17.4378474,5.03839187 17.9696186,5.56985067 17.9696186,6.22316069 L17.9696186,10.2430013 Z M2.10396446,4.05358404 C4.01140477,2.01960592 7.60445366,0.94169125 12.4975614,0.934192714 C17.3903567,0.941378811 20.983718,2.01960592 22.8911583,4.05358404 C24.4605396,5.7270075 24.3664954,7.49572488 24.3646208,7.53446732 L24.3646208,11.4890082 C22.3578249,10.9562996 20.427889,10.5785608 18.5944967,10.3242355 L18.5944967,6.22316069 C18.5944967,5.22523042 17.7824677,4.4135138 16.7845374,4.4135138 L8.21058539,4.4135138 C7.21265511,4.4135138 6.40062606,5.22554285 6.40062606,6.22316069 L6.40062606,10.2414391 C3.37746596,10.6360496 1.3406759,11.236245 0.629877094,11.4674499 L0.629564655,7.51322147 C0.628939777,7.49572488 0.534583188,5.7270075 2.10396446,4.05358404 Z M0.630501972,20.5616129 L0.630501972,17.6924852 L24.3646208,17.6924852 L24.3646208,20.5616129 L0.630501972,20.5616129 Z" id="Shape" fill-rule="nonzero"></path>
                    </g>
                </g>
                <g id="single-bed" transform="translate(88.000000, 0.797679)">
                    <g id="Group-4" transform="translate(4.000000, 31.000000)" font-family="Lato-Regular, Lato" font-size="12" font-weight="normal">
                        <text id="Single">
                            <tspan x="0" y="12.3346717">Single</tspan>
                        </text>
                    </g>
                    <g id="noun_Bed_1614372" transform="translate(7.502439, 5.000000)">
                        <path d="M23.3620039,3.64241427 C21.3158407,1.44628029 17.680925,0.325249035 12.5575497,0.309627083 C12.5541129,0.309627083 12.550676,0.309627083 12.5472392,0.309627083 L12.448196,0.309627083 C12.4447592,0.309627083 12.4413224,0.309627083 12.4378855,0.309627083 C7.31451024,0.325249035 3.67959451,1.44659273 1.63311883,3.64241427 C-0.115914882,5.51923555 0.000937317104,7.47416659 0.00593634166,7.53446732 L0.00593634166,24.9982472 C0.00593634166,25.1707135 0.145909029,25.3106862 0.318375376,25.3106862 C0.490841723,25.3106862 0.630814411,25.1707135 0.630814411,24.9982472 L0.630501972,21.1864909 L24.3643084,21.1864909 L24.3643084,24.9982472 C24.3643084,25.1707135 24.504281,25.3106862 24.6767474,25.3106862 C24.8492137,25.3106862 24.9891864,25.1707135 24.9891864,24.9982472 L24.9885616,7.55633805 C24.9944979,7.47416659 25.1110377,5.51954799 23.3620039,3.64241427 Z M0.630189533,12.1263838 C1.02511247,11.9876609 3.47213499,11.1681333 7.32388341,10.7441535 C11.1759443,10.3201738 17.2541332,10.2198808 24.3646208,12.1341948 L24.3646208,17.0676071 L0.630189533,17.0676071 L0.630189533,12.1263838 Z M17.9696186,10.2430013 C13.675769,9.70498129 9.93993545,9.82933203 7.02581657,10.1655164 L7.02581657,6.22316069 C7.02581657,5.56985067 7.55758781,5.03839187 8.21089783,5.03839187 L16.7845374,5.03839187 C17.4378474,5.03839187 17.9696186,5.56985067 17.9696186,6.22316069 L17.9696186,10.2430013 Z M2.10396446,4.05358404 C4.01140477,2.01960592 7.60445366,0.94169125 12.4975614,0.934192714 C17.3903567,0.941378811 20.983718,2.01960592 22.8911583,4.05358404 C24.4605396,5.7270075 24.3664954,7.49572488 24.3646208,7.53446732 L24.3646208,11.4890082 C22.3578249,10.9562996 20.427889,10.5785608 18.5944967,10.3242355 L18.5944967,6.22316069 C18.5944967,5.22523042 17.7824677,4.4135138 16.7845374,4.4135138 L8.21058539,4.4135138 C7.21265511,4.4135138 6.40062606,5.22554285 6.40062606,6.22316069 L6.40062606,10.2414391 C3.37746596,10.6360496 1.3406759,11.236245 0.629877094,11.4674499 L0.629564655,7.51322147 C0.628939777,7.49572488 0.534583188,5.7270075 2.10396446,4.05358404 Z M0.630501972,20.5616129 L0.630501972,17.6924852 L24.3646208,17.6924852 L24.3646208,20.5616129 L0.630501972,20.5616129 Z" id="Shape" fill-rule="nonzero"></path>
                    </g>
                </g>
            </g>
        </g>
        <g id="Group" transform="translate(173.000000, 119.000000)">
            <rect id="Rectangle" fill="#479CFF" x="0" y="0" width="50.5" height="17" rx="8.5"></rect>
            <text id="Master" font-family="Lato-Regular, Lato" font-size="12" font-weight="normal" fill="#FFFFFF">
                <tspan x="6.25" y="13">Master</tspan>
            </text>
        </g>
    </g>
</svg>