<?xml version="1.0" encoding="UTF-8"?>
<svg width="19px" height="21px" viewBox="0 0 19 21" version="1.1" xmlns="http://www.w3.org/2000/svg" xmlns:xlink="http://www.w3.org/1999/xlink">
    <!-- Generator: Sketch 63.1 (92452) - https://sketch.com -->
    <title>Shape</title>
    <desc>Created with Sketch.</desc>
    <g id="Hive" stroke="none" stroke-width="1" fill="none" fill-rule="evenodd">
        <g id="Budicon-Outline/Weather/snowflakes" transform="translate(-3.000000, -2.000000)" fill="#000000" fill-rule="nonzero">
            <path d="M21.6220368,14.9829 L19.0070368,15.6836 L21.4126368,17.0728 C21.5248292,17.1375604 21.6066978,17.2442397 21.6402299,17.3693662 C21.6737621,17.4944928 21.6562104,17.6278152 21.5914368,17.74 L21.5799368,17.76 C21.515159,17.8722297 21.4084359,17.9541161 21.2832625,17.9876319 C21.1580892,18.0211478 21.0247275,18.0035454 20.9125368,17.9387 L18.1668368,16.3535 L18.9753368,19.3705 C19.0418057,19.6353279 18.8835323,19.9045081 18.619795,19.9751803 C18.3560577,20.0458525 18.0843944,19.89188 18.0095368,19.6293 L16.9426368,15.6465 L12.9926368,13.366 L12.9926368,18.293 L15.8461368,21.1465 C16.0356229,21.3426894 16.032913,21.6545424 15.8400461,21.8474093 C15.6471792,22.0402762 15.3353262,22.0429861 15.1391368,21.8535 L12.9926368,19.707 L12.9926368,22.5114 C12.9926368,22.7812073 12.7739441,23 12.5041368,23 L12.4812368,23 C12.2114295,23 11.992692,22.7813073 11.9926368,22.5115 L11.9926368,19.707 L9.8461368,21.8535 C9.64994735,22.0429861 9.33809441,22.0402762 9.14522751,21.8474093 C8.95236061,21.6545424 8.94965069,21.3426894 9.1391368,21.1465 L11.9926368,18.293 L11.9926368,13.366 L8.0426368,15.6465 L6.9755368,19.6293 C6.90067919,19.89188 6.62901591,20.0458525 6.3652786,19.9751803 C6.10154129,19.9045081 5.94326787,19.6353279 6.0097368,19.3705 L6.8182368,16.3535 L4.0726368,17.9387 C3.96044612,18.0035454 3.82708439,18.0211478 3.70191105,17.9876319 C3.57673772,17.9541161 3.47001464,17.8722297 3.4052368,17.76 L3.3937368,17.74 C3.32896316,17.6278152 3.31141154,17.4944928 3.34494365,17.3693662 C3.37847576,17.2442397 3.46034439,17.1375604 3.5725368,17.0728 L5.9783368,15.6836 L3.3633368,14.9829 C3.10075678,14.9080424 2.94678426,14.6363791 3.01745647,14.3726418 C3.08812867,14.1089045 3.35730891,13.9506311 3.6221368,14.0171 L7.2029368,14.9766 L11.4926368,12.5 L7.2026368,10.0233 L3.6218368,10.9828 C3.35700891,11.0492689 3.08782867,10.8909955 3.01715647,10.6272582 C2.94648426,10.3635209 3.10045678,10.0918576 3.3630368,10.017 L5.9780368,9.3163 L3.5726368,7.9272 C3.46041043,7.86247302 3.37849938,7.75580854 3.34492899,7.63067913 C3.3113586,7.50554973 3.32887977,7.37220903 3.3936368,7.26 L3.4051368,7.24 C3.46991497,7.12774314 3.57665626,7.04583727 3.70185373,7.01231999 C3.82705119,6.9788027 3.96043713,6.99642283 4.0726368,7.0613 L6.8182368,8.6465 L6.0097368,5.6294 C5.96024293,5.45578903 6.00817858,5.26897959 6.13515091,5.14065017 C6.26212324,5.01232076 6.44841253,4.96240187 6.62253985,5.0100473 C6.79666718,5.05769273 6.9315893,5.1955028 6.9755368,5.3706 L8.0426368,9.3535 L11.9926368,11.634 L11.9926368,6.707 L9.1391368,3.8535 C9.0091585,3.72796276 8.9570305,3.54206105 9.00278822,3.36724634 C9.04854594,3.19243162 9.18506842,3.05590914 9.35988314,3.01015142 C9.53469785,2.9643937 9.72059956,3.01652171 9.8461368,3.1465 L11.9926368,5.293 L11.9926368,2.4885 C11.992692,2.21873177 12.2113686,2 12.4811368,2 L12.5040368,2 C12.7738441,2 12.9925816,2.21869272 12.9926368,2.4885 L12.9926368,5.293 L15.1391368,3.1465 C15.264674,3.01652171 15.4505757,2.9643937 15.6253905,3.01015142 C15.8002052,3.05590914 15.9367277,3.19243162 15.9824854,3.36724634 C16.0282431,3.54206105 15.9761151,3.72796276 15.8461368,3.8535 L12.9926368,6.707 L12.9926368,11.634 L16.9426368,9.3535 L18.0099368,5.3706 C18.0847944,5.10801998 18.3564577,4.95404747 18.620195,5.02471967 C18.8839323,5.09539188 19.0422057,5.36457211 18.9757368,5.6294 L18.1672368,8.6465 L20.9126368,7.0613 C21.0248275,6.99645458 21.1581892,6.97885222 21.2833625,7.01236806 C21.4085359,7.04588391 21.515259,7.12777029 21.5800368,7.24 L21.5915368,7.26 C21.6563104,7.37218479 21.6738621,7.50550725 21.6403299,7.63063377 C21.6067978,7.7557603 21.5249292,7.86243957 21.4127368,7.9272 L19.0068368,9.3162 L21.6219368,10.0169 C21.797034,10.0608475 21.9348441,10.1957696 21.9824895,10.3698969 C22.0301349,10.5440243 21.980216,10.7303136 21.8518866,10.8572859 C21.7235572,10.9842582 21.5367478,11.0321939 21.3631368,10.9827 L17.7826368,10.0233 L13.4926368,12.5 L17.7826368,14.9766 L21.3634368,14.0171 C21.6282647,13.9506311 21.8974449,14.1089045 21.9681171,14.3726418 C22.0387893,14.6363791 21.8848168,14.9080424 21.6222368,14.9829 L21.6220368,14.9829 Z" id="Shape"></path>
        </g>
    </g>
</svg>