<?xml version="1.0" encoding="UTF-8"?>
<svg width="25px" height="20px" viewBox="0 0 25 20" version="1.1" xmlns="http://www.w3.org/2000/svg" xmlns:xlink="http://www.w3.org/1999/xlink">
    <!-- Generator: Sketch 63.1 (92452) - https://sketch.com -->
    <title>Shape</title>
    <desc>Created with Sketch.</desc>
    <g id="Hive" stroke="none" stroke-width="1" fill="none" fill-rule="evenodd">
        <g id="Budicon-Outline/Weather/sun-set" transform="translate(0.000000, -3.000000)" fill="#000000" fill-rule="nonzero">
            <path d="M3.99992357,15.5 C3.98635856,12.274267 5.79983529,9.31878367 8.6818571,7.86982194 C11.5638789,6.42086021 15.01774,6.72814323 17.5986983,8.66313522 C20.1796566,10.5981272 21.4428935,13.8273395 20.86,17 L19.849,17 C20.456444,14.0192654 19.2032528,10.9668485 16.6765657,9.27285348 C14.1498786,7.57885846 10.8502214,7.57885846 8.32353432,9.27285348 C5.79684722,10.9668485 4.543656,14.0192654 5.1511,17 L4.14,17 C4.04918781,16.5051072 4.0023385,16.0031503 3.99992357,15.5 Z M19.5,20 L5.5,20 C5.22385763,20 5,20.2238576 5,20.5 C5,20.7761424 5.22385763,21 5.5,21 L19.5,21 C19.7761424,21 20,20.7761424 20,20.5 C20,20.2238576 19.7761424,20 19.5,20 Z M16.5,22 L8.5,22 C8.22385763,22 8,22.2238576 8,22.5 C8,22.7761424 8.22385763,23 8.5,23 L16.5,23 C16.7761424,23 17,22.7761424 17,22.5 C17,22.2238576 16.7761424,22 16.5,22 Z M21.5,18 L3.5,18 C3.22385763,18 3,18.2238576 3,18.5 C3,18.7761424 3.22385763,19 3.5,19 L21.5,19 C21.7761424,19 22,18.7761424 22,18.5 C22,18.2238576 21.7761424,18 21.5,18 Z M12.5,5 C12.7761424,5 13,4.77614237 13,4.5 L13,3.5 C13,3.22385763 12.7761424,3 12.5,3 C12.2238576,3 12,3.22385763 12,3.5 L12,4.5 C12,4.77614237 12.2238576,5 12.5,5 Z M4.3683,8.0754 C4.56358789,8.27068789 4.88021211,8.27068789 5.0755,8.0754 C5.27078789,7.88011211 5.27078789,7.56348789 5.0755,7.3682 L4.3683,6.661 C4.17301211,6.46571212 3.85638789,6.46571213 3.66110001,6.66100001 C3.46581213,6.85628789 3.46581212,7.17291211 3.6611,7.3682 L4.3683,8.0754 Z M1.5,15 L0.5,15 C0.223857625,15 0,15.2238576 0,15.5 C0,15.7761424 0.223857625,16 0.5,16 L1.5,16 C1.77614237,16 2,15.7761424 2,15.5 C2,15.2238576 1.77614237,15 1.5,15 Z M24.5,15 L23.5,15 C23.2238576,15 23,15.2238576 23,15.5 C23,15.7761424 23.2238576,16 23.5,16 L24.5,16 C24.7761424,16 25,15.7761424 25,15.5 C25,15.2238576 24.7761424,15 24.5,15 Z M20.6317,8.0754 L21.3389,7.3682 C21.5341879,7.17291211 21.5341879,6.85628789 21.3389,6.661 C21.1436121,6.46571211 20.8269879,6.46571211 20.6317,6.661 L19.9245,7.3682 C19.7981709,7.49452911 19.7488337,7.67865781 19.7950734,7.85122659 C19.8413131,8.02379537 19.9761046,8.15858694 20.1486734,8.2048266 C20.3212422,8.25106626 20.5053709,8.20172912 20.6317,8.0754 Z" id="Shape"></path>
        </g>
    </g>
</svg>