<?xml version="1.0" encoding="UTF-8"?>
<svg width="23px" height="23px" viewBox="0 0 23 23" version="1.1" xmlns="http://www.w3.org/2000/svg" xmlns:xlink="http://www.w3.org/1999/xlink">
    <!-- Generator: Sketch 63.1 (92452) - https://sketch.com -->
    <title>Shape</title>
    <desc>Created with Sketch.</desc>
    <g id="Hive" stroke="none" stroke-width="1" fill="none" fill-rule="evenodd">
        <g id="Budicon-Outline/Furniture/washer" transform="translate(-1.000000, 0.000000)" fill="#000000" fill-rule="nonzero">
            <path d="M12.5,20 C16.0898509,20 19,17.0898509 19,13.5 C19,9.91014913 16.0898509,7 12.5,7 C8.91014913,7 6,9.91014913 6,13.5 C6,17.0898509 8.91014913,20 12.5,20 Z M12.5,8 C15.5361497,8.00341679 17.9965832,10.4638503 18,13.5 C18,13.6465 17.9893,13.79 17.978,13.934 C17.5382587,13.7786215 17.1491589,13.5063727 16.8525,13.1465 C16.2854778,12.4227745 15.4171481,12 14.49775,12 C13.5783519,12 12.7100222,12.4227745 12.143,13.1465 C11.7537945,13.6685615 11.1465575,13.9831643 10.4956,14 C9.84575642,13.9829135 9.2397837,13.6682398 8.852,13.1465 C8.41431557,12.6377411 7.83724074,12.2682742 7.192,12.0837 C7.83457743,9.67895544 10.0108875,8.00461528 12.5,8 Z M7.022,13.0661 C7.46070549,13.2218604 7.8487651,13.4940483 8.1446,13.8535 C8.72010087,14.564606 9.5809254,14.9843998 10.4956,14.9999926 C11.4112408,14.9844375 12.273124,14.5647344 12.85,13.8535 C13.2280092,13.3182679 13.842441,12.9999926 14.4977,12.9999926 C15.152959,12.9999926 15.7673908,13.3182679 16.1454,13.8535 C16.5839839,14.3625696 17.1620336,14.7320723 17.8082,14.9164 C17.0983495,17.5843263 14.5196377,19.3117515 11.7822969,18.9530267 C9.04495601,18.5943019 6.99843034,16.2607456 6.9999991,13.4999926 C6.9999991,13.3535 7.0107,13.21 7.022,13.0661 Z M22.5,0 L2.5,0 C1.67157288,0 1,0.671572875 1,1.5 L1,21.5 C1,22.3284271 1.67157288,23 2.5,23 L22.5,23 C23.3284271,23 24,22.3284271 24,21.5 L24,1.5 C24,0.671572875 23.3284271,0 22.5,0 Z M23,21.5 C23,21.7761424 22.7761424,22 22.5,22 L2.5,22 C2.22385763,22 2,21.7761424 2,21.5 L2,5 L23,5 L23,21.5 Z M23,4 L2,4 L2,1.5 C2,1.22385763 2.22385763,1 2.5,1 L22.5,1 C22.7761424,1 23,1.22385763 23,1.5 L23,4 Z M21,2 L22,2 L22,3 L21,3 L21,2 Z M18,2 L19,2 L19,3 L18,3 L18,2 Z" id="Shape"></path>
        </g>
    </g>
</svg>